<svg xmlns="http://www.w3.org/2000/svg" xmlns:xlink="http://www.w3.org/1999/xlink" width="430" zoomAndPan="magnify" viewBox="0 0 322.5 698.999979" height="932" preserveAspectRatio="xMidYMid meet" version="1.0"><defs><filter x="0%" y="0%" width="100%" height="100%" id="57034f4d90"><feColorMatrix values="0 0 0 0 1 0 0 0 0 1 0 0 0 0 1 0 0 0 1 0" color-interpolation-filters="sRGB"/></filter><clipPath id="7f114be0fb"><path d="M 0 0.539062 L 322 0.539062 L 322 698.457031 L 0 698.457031 Z M 0 0.539062 " clip-rule="nonzero"/></clipPath><clipPath id="28307afe9b"><path d="M 0 0.539062 L 322 0.539062 L 322 209 L 0 209 Z M 0 0.539062 " clip-rule="nonzero"/></clipPath><mask id="262eb3710a"><g filter="url(#57034f4d90)"><rect x="-32.25" width="387" fill="#000000" y="-69.899998" height="838.799975" fill-opacity="0.35"/></g></mask><clipPath id="2f61eb7901"><path d="M 0 0.539062 L 147 0.539062 L 147 56 L 0 56 Z M 0 0.539062 " clip-rule="nonzero"/></clipPath><clipPath id="cf05e00902"><path d="M 22.238281 -142.484375 L 440.265625 106.863281 L 380.039062 207.835938 L -37.988281 -41.515625 Z M 22.238281 -142.484375 " clip-rule="nonzero"/></clipPath><clipPath id="f808b2a932"><path d="M 22.238281 -142.484375 L 440.265625 106.863281 L 380.039062 207.835938 L -37.988281 -41.515625 Z M 22.238281 -142.484375 " clip-rule="nonzero"/></clipPath><clipPath id="06bb6a4864"><path d="M 0 0.539062 L 184 0.539062 L 184 54 L 0 54 Z M 0 0.539062 " clip-rule="nonzero"/></clipPath><clipPath id="fa8fcd031f"><path d="M 22.238281 -142.484375 L 440.265625 106.863281 L 380.039062 207.835938 L -37.988281 -41.515625 Z M 22.238281 -142.484375 " clip-rule="nonzero"/></clipPath><clipPath id="0d04aeb9bc"><path d="M 22.238281 -142.484375 L 440.265625 106.863281 L 380.039062 207.835938 L -37.988281 -41.515625 Z M 22.238281 -142.484375 " clip-rule="nonzero"/></clipPath><clipPath id="842beafb60"><path d="M 2 0.539062 L 258 0.539062 L 258 35 L 2 35 Z M 2 0.539062 " clip-rule="nonzero"/></clipPath><clipPath id="03bdd14a24"><path d="M 22.238281 -142.484375 L 440.265625 106.863281 L 380.039062 207.835938 L -37.988281 -41.515625 Z M 22.238281 -142.484375 " clip-rule="nonzero"/></clipPath><clipPath id="6b80ed6f0d"><path d="M 22.238281 -142.484375 L 440.265625 106.863281 L 380.039062 207.835938 L -37.988281 -41.515625 Z M 22.238281 -142.484375 " clip-rule="nonzero"/></clipPath><clipPath id="c129f56a5e"><path d="M 207 53 L 275 53 L 275 68 L 207 68 Z M 207 53 " clip-rule="nonzero"/></clipPath><clipPath id="d2bc96051e"><path d="M 22.238281 -142.484375 L 440.265625 106.863281 L 380.039062 207.835938 L -37.988281 -41.515625 Z M 22.238281 -142.484375 " clip-rule="nonzero"/></clipPath><clipPath id="87ccc834d3"><path d="M 22.238281 -142.484375 L 440.265625 106.863281 L 380.039062 207.835938 L -37.988281 -41.515625 Z M 22.238281 -142.484375 " clip-rule="nonzero"/></clipPath><clipPath id="2c1f5b3f32"><path d="M 172 63 L 245 63 L 245 75 L 172 75 Z M 172 63 " clip-rule="nonzero"/></clipPath><clipPath id="0a682906ec"><path d="M 22.238281 -142.484375 L 440.265625 106.863281 L 380.039062 207.835938 L -37.988281 -41.515625 Z M 22.238281 -142.484375 " clip-rule="nonzero"/></clipPath><clipPath id="8da82e4a73"><path d="M 22.238281 -142.484375 L 440.265625 106.863281 L 380.039062 207.835938 L -37.988281 -41.515625 Z M 22.238281 -142.484375 " clip-rule="nonzero"/></clipPath><clipPath id="a7cd32126f"><path d="M 307 31 L 322 31 L 322 63 L 307 63 Z M 307 31 " clip-rule="nonzero"/></clipPath><clipPath id="d140e048f8"><path d="M 22.238281 -142.484375 L 440.265625 106.863281 L 380.039062 207.835938 L -37.988281 -41.515625 Z M 22.238281 -142.484375 " clip-rule="nonzero"/></clipPath><clipPath id="2912550dab"><path d="M 22.238281 -142.484375 L 440.265625 106.863281 L 380.039062 207.835938 L -37.988281 -41.515625 Z M 22.238281 -142.484375 " clip-rule="nonzero"/></clipPath><clipPath id="be5da10485"><path d="M 8 0.539062 L 303 0.539062 L 303 27 L 8 27 Z M 8 0.539062 " clip-rule="nonzero"/></clipPath><clipPath id="621751dc1b"><path d="M 22.238281 -142.484375 L 440.265625 106.863281 L 380.039062 207.835938 L -37.988281 -41.515625 Z M 22.238281 -142.484375 " clip-rule="nonzero"/></clipPath><clipPath id="7c51407dcd"><path d="M 22.238281 -142.484375 L 440.265625 106.863281 L 380.039062 207.835938 L -37.988281 -41.515625 Z M 22.238281 -142.484375 " clip-rule="nonzero"/></clipPath><clipPath id="71fdee3b75"><path d="M 265 35 L 322 35 L 322 59 L 265 59 Z M 265 35 " clip-rule="nonzero"/></clipPath><clipPath id="0fb87822c7"><path d="M 22.238281 -142.484375 L 440.265625 106.863281 L 380.039062 207.835938 L -37.988281 -41.515625 Z M 22.238281 -142.484375 " clip-rule="nonzero"/></clipPath><clipPath id="73dadbbbc0"><path d="M 22.238281 -142.484375 L 440.265625 106.863281 L 380.039062 207.835938 L -37.988281 -41.515625 Z M 22.238281 -142.484375 " clip-rule="nonzero"/></clipPath><clipPath id="f83ddc9d10"><path d="M 312 68 L 322 68 L 322 94 L 312 94 Z M 312 68 " clip-rule="nonzero"/></clipPath><clipPath id="ba6cc587d4"><path d="M 22.238281 -142.484375 L 440.265625 106.863281 L 380.039062 207.835938 L -37.988281 -41.515625 Z M 22.238281 -142.484375 " clip-rule="nonzero"/></clipPath><clipPath id="f15723b8e7"><path d="M 22.238281 -142.484375 L 440.265625 106.863281 L 380.039062 207.835938 L -37.988281 -41.515625 Z M 22.238281 -142.484375 " clip-rule="nonzero"/></clipPath><clipPath id="4010b8b530"><path d="M 284 73 L 322 73 L 322 95 L 284 95 Z M 284 73 " clip-rule="nonzero"/></clipPath><clipPath id="243adea598"><path d="M 22.238281 -142.484375 L 440.265625 106.863281 L 380.039062 207.835938 L -37.988281 -41.515625 Z M 22.238281 -142.484375 " clip-rule="nonzero"/></clipPath><clipPath id="5a03fc54b1"><path d="M 22.238281 -142.484375 L 440.265625 106.863281 L 380.039062 207.835938 L -37.988281 -41.515625 Z M 22.238281 -142.484375 " clip-rule="nonzero"/></clipPath><clipPath id="de10975cf9"><path d="M 259 79 L 309 79 L 309 99 L 259 99 Z M 259 79 " clip-rule="nonzero"/></clipPath><clipPath id="e1b61af5bc"><path d="M 22.238281 -142.484375 L 440.265625 106.863281 L 380.039062 207.835938 L -37.988281 -41.515625 Z M 22.238281 -142.484375 " clip-rule="nonzero"/></clipPath><clipPath id="bec154ea86"><path d="M 22.238281 -142.484375 L 440.265625 106.863281 L 380.039062 207.835938 L -37.988281 -41.515625 Z M 22.238281 -142.484375 " clip-rule="nonzero"/></clipPath><clipPath id="61d8c88e9f"><path d="M 0 0.539062 L 223 0.539062 L 223 45 L 0 45 Z M 0 0.539062 " clip-rule="nonzero"/></clipPath><clipPath id="6f34a5df99"><path d="M 22.238281 -142.484375 L 440.265625 106.863281 L 380.039062 207.835938 L -37.988281 -41.515625 Z M 22.238281 -142.484375 " clip-rule="nonzero"/></clipPath><clipPath id="ea40305f8b"><path d="M 22.238281 -142.484375 L 440.265625 106.863281 L 380.039062 207.835938 L -37.988281 -41.515625 Z M 22.238281 -142.484375 " clip-rule="nonzero"/></clipPath><clipPath id="b32ef79da5"><path d="M 211 41 L 227 41 L 227 45 L 211 45 Z M 211 41 " clip-rule="nonzero"/></clipPath><clipPath id="c285d4653b"><path d="M 22.238281 -142.484375 L 440.265625 106.863281 L 380.039062 207.835938 L -37.988281 -41.515625 Z M 22.238281 -142.484375 " clip-rule="nonzero"/></clipPath><clipPath id="12d31a2970"><path d="M 22.238281 -142.484375 L 440.265625 106.863281 L 380.039062 207.835938 L -37.988281 -41.515625 Z M 22.238281 -142.484375 " clip-rule="nonzero"/></clipPath><clipPath id="948a4a682e"><path d="M 234 43 L 300 43 L 300 60 L 234 60 Z M 234 43 " clip-rule="nonzero"/></clipPath><clipPath id="656bab1c55"><path d="M 22.238281 -142.484375 L 440.265625 106.863281 L 380.039062 207.835938 L -37.988281 -41.515625 Z M 22.238281 -142.484375 " clip-rule="nonzero"/></clipPath><clipPath id="4a5b11b586"><path d="M 22.238281 -142.484375 L 440.265625 106.863281 L 380.039062 207.835938 L -37.988281 -41.515625 Z M 22.238281 -142.484375 " clip-rule="nonzero"/></clipPath><clipPath id="ef0dbbce22"><path d="M 316 103 L 322 103 L 322 124 L 316 124 Z M 316 103 " clip-rule="nonzero"/></clipPath><clipPath id="ac7ac4de06"><path d="M 22.238281 -142.484375 L 440.265625 106.863281 L 380.039062 207.835938 L -37.988281 -41.515625 Z M 22.238281 -142.484375 " clip-rule="nonzero"/></clipPath><clipPath id="360297d570"><path d="M 22.238281 -142.484375 L 440.265625 106.863281 L 380.039062 207.835938 L -37.988281 -41.515625 Z M 22.238281 -142.484375 " clip-rule="nonzero"/></clipPath><clipPath id="eb3af6ac1d"><rect x="0" width="322" y="0" height="209"/></clipPath></defs><g clip-path="url(#7f114be0fb)"><path fill="#ffffff" d="M 0 0.539062 L 322 0.539062 L 322 698.457031 L 0 698.457031 Z M 0 0.539062 " fill-opacity="1" fill-rule="nonzero"/><path fill="#5755fe" d="M 0 0.539062 L 322 0.539062 L 322 698.457031 L 0 698.457031 Z M 0 0.539062 " fill-opacity="1" fill-rule="nonzero"/></g><g clip-path="url(#28307afe9b)"><g mask="url(#262eb3710a)"><g transform="matrix(1, 0, 0, 1, 0, -0.00000000000005218)"><g clip-path="url(#eb3af6ac1d)"><g clip-path="url(#2f61eb7901)"><g clip-path="url(#cf05e00902)"><g clip-path="url(#f808b2a932)"><path fill="#ffffff" d="M -7.945312 -79.894531 C -7.945312 -79.894531 -8.957031 -81.214844 -9.878906 -82.601562 C -10.34375 -83.292969 -10.785156 -84.003906 -11.113281 -84.546875 C -11.277344 -84.824219 -11.410156 -85.054688 -11.507812 -85.214844 C -11.605469 -85.394531 -11.664062 -85.496094 -11.664062 -85.496094 C -11.664062 -85.496094 -11.378906 -84.746094 -10.84375 -83.339844 C -10.308594 -81.976562 -9.511719 -79.992188 -8.429688 -77.503906 C -6.226562 -72.550781 -2.878906 -65.570312 1.679688 -57.433594 C 6.261719 -49.316406 12.144531 -40.113281 19.117188 -30.617188 C 22.617188 -25.882812 26.347656 -21.03125 30.421875 -16.324219 C 34.476562 -11.597656 38.773438 -6.917969 43.257812 -2.378906 C 52.222656 6.703125 61.949219 15.207031 71.703125 22.515625 C 76.589844 26.152344 81.484375 29.472656 86.222656 32.519531 C 87.417969 33.265625 88.59375 34.003906 89.753906 34.730469 C 90.917969 35.457031 92.085938 36.128906 93.226562 36.816406 C 95.5 38.195312 97.761719 39.425781 99.914062 40.640625 C 108.605469 45.375 116.195312 48.78125 121.566406 51.015625 C 122.902344 51.597656 124.109375 52.082031 125.160156 52.492188 C 126.214844 52.910156 127.113281 53.261719 127.839844 53.550781 C 129.289062 54.132812 130.074219 54.410156 130.074219 54.410156 C 131.394531 54.503906 132.714844 54.59375 134.042969 54.6875 C 134.703125 54.730469 135.367188 54.769531 136.03125 54.8125 L 138.03125 54.890625 C 139.359375 54.9375 140.695312 54.984375 142.03125 55.027344 C 143.367188 55.070312 144.714844 55.054688 146.054688 55.066406 C 146.054688 55.066406 145.238281 54.820312 143.703125 54.359375 C 142.167969 53.902344 139.941406 53.136719 137.105469 52.210938 C 131.457031 50.285156 123.480469 47.230469 114.265625 42.949219 C 109.671875 40.78125 104.742188 38.367188 99.699219 35.523438 C 97.160156 34.140625 94.617188 32.605469 92.015625 31.066406 C 90.730469 30.269531 89.429688 29.464844 88.121094 28.652344 C 86.808594 27.84375 85.519531 26.96875 84.203125 26.121094 C 78.976562 22.667969 73.707031 18.957031 68.5625 14.941406 C 63.417969 10.933594 58.371094 6.675781 53.515625 2.253906 C 43.796875 -6.589844 34.808594 -16.054688 27.082031 -25.414062 C 19.375 -34.796875 12.847656 -43.976562 7.628906 -52.042969 C 2.402344 -60.109375 -1.4375 -67.113281 -4.035156 -72.050781 C -5.328125 -74.519531 -6.308594 -76.480469 -6.960938 -77.824219 C -7.605469 -79.175781 -7.945312 -79.894531 -7.945312 -79.894531 Z M -7.945312 -79.894531 " fill-opacity="1" fill-rule="nonzero"/></g></g></g><g clip-path="url(#06bb6a4864)"><g clip-path="url(#fa8fcd031f)"><g clip-path="url(#0d04aeb9bc)"><path fill="#ffffff" d="M -3.640625 -75.914062 C -3.640625 -75.914062 -4.800781 -77.113281 -5.886719 -78.371094 C -6.976562 -79.625 -7.976562 -80.949219 -7.976562 -80.949219 C -7.976562 -80.949219 -6.503906 -77.753906 -3.5625 -72.359375 C -2.09375 -69.660156 -0.257812 -66.410156 1.957031 -62.742188 C 3.0625 -60.90625 4.269531 -58.96875 5.558594 -56.9375 C 6.867188 -54.917969 8.265625 -52.808594 9.761719 -50.628906 C 15.753906 -41.921875 23.242188 -32.035156 32.195312 -22.148438 C 41.160156 -12.285156 51.523438 -2.375 62.792969 6.585938 C 74.035156 15.578125 86.222656 23.53125 98.265625 29.988281 C 110.304688 36.46875 122.203125 41.371094 132.628906 44.953125 C 143.085938 48.464844 152.054688 50.65625 158.355469 52.027344 C 161.515625 52.6875 164 53.214844 165.707031 53.484375 C 167.410156 53.785156 168.320312 53.941406 168.320312 53.941406 L 170.269531 53.742188 L 172.21875 53.492188 C 173.515625 53.320312 174.816406 53.148438 176.117188 52.976562 C 178.714844 52.617188 181.316406 52.152344 183.910156 51.730469 C 183.910156 51.730469 182.976562 51.613281 181.226562 51.394531 C 180.351562 51.285156 179.277344 51.148438 178.007812 50.988281 C 176.742188 50.828125 175.292969 50.578125 173.664062 50.335938 C 167.167969 49.34375 157.921875 47.617188 147.089844 44.636719 C 136.25 41.710938 123.882812 37.324219 111.230469 31.492188 C 98.59375 25.625 85.742188 18.191406 73.75 9.6875 C 61.746094 1.183594 50.636719 -8.398438 40.949219 -18.011719 C 31.230469 -27.605469 23.03125 -37.332031 16.414062 -45.925781 C 13.105469 -50.230469 10.199219 -54.261719 7.703125 -57.882812 C 5.210938 -61.511719 3.132812 -64.734375 1.457031 -67.410156 C -0.214844 -70.085938 -1.488281 -72.210938 -2.339844 -73.671875 C -3.1875 -75.132812 -3.640625 -75.914062 -3.640625 -75.914062 Z M -3.640625 -75.914062 " fill-opacity="1" fill-rule="nonzero"/></g></g></g><g clip-path="url(#842beafb60)"><g clip-path="url(#03bdd14a24)"><g clip-path="url(#6b80ed6f0d)"><path fill="#ffffff" d="M 257.789062 31.363281 C 257.789062 31.363281 257.496094 31.316406 256.929688 31.226562 C 256.363281 31.140625 255.523438 30.988281 254.425781 30.839844 C 253.328125 30.699219 251.972656 30.519531 250.378906 30.3125 C 248.785156 30.089844 246.949219 29.898438 244.894531 29.695312 C 243.867188 29.59375 242.785156 29.484375 241.648438 29.371094 C 240.515625 29.285156 239.324219 29.195312 238.085938 29.101562 C 236.847656 29.011719 235.558594 28.914062 234.222656 28.816406 C 232.882812 28.75 231.5 28.679688 230.066406 28.605469 C 224.34375 28.320312 217.890625 28.238281 210.871094 28.328125 C 207.507812 28.390625 204.007812 28.453125 200.378906 28.519531 C 198.652344 28.566406 196.898438 28.527344 195.117188 28.507812 C 194.222656 28.5 193.328125 28.488281 192.421875 28.480469 C 191.519531 28.464844 190.609375 28.414062 189.695312 28.382812 C 182.367188 28.136719 174.65625 27.519531 166.742188 26.441406 C 158.824219 25.386719 150.703125 23.851562 142.5625 21.808594 C 134.417969 19.777344 126.242188 17.273438 118.226562 14.277344 C 110.222656 11.25 102.351562 7.808594 94.796875 3.976562 C 91.035156 2.035156 87.320312 0.0507812 83.726562 -2.054688 C 80.101562 -4.105469 76.605469 -6.292969 73.175781 -8.46875 C 66.359375 -12.890625 59.957031 -17.496094 54.066406 -22.125 C 48.179688 -26.765625 42.816406 -31.429688 37.957031 -35.863281 C 28.253906 -44.75 20.761719 -52.871094 15.691406 -58.699219 C 10.632812 -64.546875 7.882812 -68.027344 7.882812 -68.027344 C 7.882812 -68.027344 7.523438 -68.261719 6.984375 -68.617188 C 6.449219 -68.976562 5.75 -69.464844 5.054688 -69.964844 C 3.671875 -70.960938 2.351562 -72.023438 2.351562 -72.023438 C 2.351562 -72.023438 2.992188 -71.128906 4.195312 -69.453125 C 5.410156 -67.785156 7.214844 -65.355469 9.582031 -62.320312 C 14.320312 -56.261719 21.328125 -47.769531 30.578125 -38.417969 C 39.824219 -29.078125 51.242188 -18.800781 64.5625 -9.332031 C 67.871094 -6.941406 71.332031 -4.652344 74.851562 -2.371094 C 78.40625 -0.144531 82.015625 2.082031 85.742188 4.164062 C 89.449219 6.285156 93.269531 8.265625 97.121094 10.199219 C 101.003906 12.074219 104.917969 13.917969 108.910156 15.570312 C 124.8125 22.359375 141.496094 27.054688 157.378906 29.765625 C 173.269531 32.472656 188.34375 33.285156 201.222656 32.949219 C 204.550781 32.863281 207.742188 32.777344 210.777344 32.699219 C 212.328125 32.636719 213.847656 32.632812 215.320312 32.632812 C 216.796875 32.625 218.230469 32.617188 219.617188 32.609375 C 222.398438 32.660156 225 32.703125 227.40625 32.746094 C 229.8125 32.847656 232.027344 32.945312 234.023438 33.03125 C 238.015625 33.3125 241.164062 33.480469 243.300781 33.714844 C 245.441406 33.914062 246.582031 34.023438 246.582031 34.023438 C 248.414062 33.519531 250.253906 33.117188 252.125 32.652344 C 253.0625 32.425781 254.003906 32.203125 254.945312 31.976562 C 255.890625 31.773438 256.839844 31.570312 257.789062 31.363281 Z M 257.789062 31.363281 " fill-opacity="1" fill-rule="nonzero"/></g></g></g><g clip-path="url(#c129f56a5e)"><g clip-path="url(#d2bc96051e)"><g clip-path="url(#87ccc834d3)"><path fill="#ffffff" d="M 274.082031 66.335938 C 274.082031 66.335938 273.25 66.035156 271.800781 65.511719 C 270.332031 65.027344 268.246094 64.300781 265.714844 63.488281 C 260.660156 61.835938 253.808594 59.835938 246.800781 58.230469 C 239.804688 56.59375 232.667969 55.296875 227.261719 54.59375 C 225.914062 54.382812 224.671875 54.253906 223.570312 54.121094 C 222.46875 53.992188 221.503906 53.878906 220.714844 53.785156 C 219.128906 53.585938 218.21875 53.523438 218.21875 53.523438 C 216.34375 54.167969 214.472656 54.8125 212.601562 55.457031 L 207.070312 57.480469 C 207.070312 57.480469 208.007812 57.519531 209.644531 57.589844 C 210.460938 57.628906 211.457031 57.679688 212.597656 57.738281 C 213.730469 57.824219 215.011719 57.925781 216.410156 58.03125 C 221.996094 58.484375 229.394531 59.351562 236.652344 60.695312 C 243.917969 62.027344 251.035156 63.738281 256.296875 65.167969 C 258.917969 65.917969 261.101562 66.519531 262.613281 66.992188 C 264.128906 67.445312 264.996094 67.703125 264.996094 67.703125 C 265.742188 67.566406 266.484375 67.457031 267.230469 67.34375 C 267.980469 67.222656 268.734375 67.105469 269.492188 66.988281 C 270.25 66.867188 271.015625 66.75 271.78125 66.632812 C 272.546875 66.535156 273.3125 66.433594 274.082031 66.335938 Z M 274.082031 66.335938 " fill-opacity="1" fill-rule="nonzero"/></g></g></g><g clip-path="url(#2c1f5b3f32)"><g clip-path="url(#0a682906ec)"><g clip-path="url(#8da82e4a73)"><path fill="#ffffff" d="M 244.238281 71.910156 C 244.238281 71.910156 244.039062 71.851562 243.664062 71.738281 C 243.289062 71.628906 242.746094 71.445312 242.039062 71.261719 C 240.625 70.886719 238.613281 70.300781 236.164062 69.683594 C 234.9375 69.390625 233.601562 69.070312 232.195312 68.730469 C 230.785156 68.382812 229.273438 68.125 227.714844 67.796875 C 226.933594 67.640625 226.140625 67.480469 225.335938 67.316406 C 224.527344 67.175781 223.707031 67.03125 222.882812 66.886719 C 222.054688 66.746094 221.21875 66.601562 220.382812 66.457031 C 219.542969 66.3125 218.699219 66.15625 217.847656 66.054688 C 216.148438 65.835938 214.445312 65.621094 212.773438 65.40625 C 211.089844 65.210938 209.429688 65.066406 207.820312 64.929688 C 206.988281 64.859375 206.171875 64.789062 205.375 64.722656 C 204.445312 64.65625 203.535156 64.589844 202.652344 64.527344 C 200.882812 64.390625 199.214844 64.300781 197.675781 64.167969 C 194.59375 63.871094 192.03125 63.644531 190.242188 63.445312 C 188.449219 63.226562 187.425781 63.101562 187.425781 63.101562 L 183.824219 63.902344 C 182.621094 64.15625 181.410156 64.371094 180.199219 64.597656 L 176.546875 65.257812 C 175.324219 65.464844 174.097656 65.628906 172.867188 65.808594 C 172.867188 65.808594 173.964844 65.996094 175.882812 66.324219 C 177.804688 66.597656 180.550781 67.015625 183.855469 67.449219 C 185.511719 67.640625 187.304688 67.847656 189.203125 68.066406 C 190.152344 68.183594 191.128906 68.28125 192.125 68.363281 C 193.125 68.449219 194.144531 68.539062 195.179688 68.628906 C 196.21875 68.714844 197.277344 68.804688 198.34375 68.898438 C 199.414062 68.960938 200.496094 69.027344 201.585938 69.09375 C 202.675781 69.164062 203.777344 69.234375 204.882812 69.304688 L 205.714844 69.355469 L 206.417969 69.410156 L 207.761719 69.519531 C 209.546875 69.660156 211.335938 69.796875 213.085938 70.007812 C 214.828125 70.222656 216.542969 70.433594 218.203125 70.636719 C 219.855469 70.890625 221.441406 71.179688 222.945312 71.425781 C 223.695312 71.558594 224.425781 71.667969 225.128906 71.804688 C 225.832031 71.941406 226.507812 72.074219 227.15625 72.203125 C 228.453125 72.460938 229.640625 72.691406 230.691406 72.898438 C 231.738281 73.128906 232.644531 73.339844 233.390625 73.519531 C 234.882812 73.875 235.734375 74.078125 235.734375 74.078125 C 237.125 73.675781 238.515625 73.351562 239.9375 72.976562 C 241.355469 72.605469 242.792969 72.230469 244.238281 71.910156 Z M 244.238281 71.910156 " fill-opacity="1" fill-rule="nonzero"/></g></g></g><g clip-path="url(#a7cd32126f)"><g clip-path="url(#d140e048f8)"><g clip-path="url(#2912550dab)"><path fill="#ffffff" d="M 358.050781 62.4375 C 358.050781 62.4375 357.613281 62.03125 356.847656 61.324219 C 356.066406 60.632812 354.945312 59.648438 353.605469 58.464844 C 350.910156 56.097656 347.1875 53.089844 343.351562 50.203125 C 339.5 47.34375 335.546875 44.582031 332.484375 42.671875 C 330.960938 41.703125 329.6875 40.898438 328.777344 40.367188 C 327.871094 39.832031 327.351562 39.527344 327.351562 39.527344 C 326.289062 38.910156 325.308594 38.320312 324.371094 37.816406 C 323.425781 37.324219 322.550781 36.871094 321.742188 36.445312 C 320.925781 36.03125 320.175781 35.640625 319.46875 35.3125 C 318.757812 34.996094 318.105469 34.707031 317.507812 34.441406 C 315.101562 33.386719 313.476562 32.84375 312.269531 32.558594 C 311.070312 32.261719 310.292969 32.207031 309.554688 32.171875 C 308.8125 32.140625 308.121094 32.105469 307.058594 31.949219 C 307.058594 31.949219 307.855469 32.257812 309.226562 32.855469 C 309.914062 33.144531 310.75 33.503906 311.699219 33.929688 C 312.652344 34.347656 313.722656 34.828125 314.878906 35.390625 C 319.527344 37.546875 325.570312 40.785156 331.375 44.390625 C 332.832031 45.285156 334.269531 46.203125 335.664062 47.140625 C 337.0625 48.074219 338.4375 48.988281 339.734375 49.925781 C 341.035156 50.855469 342.296875 51.742188 343.476562 52.609375 C 344.640625 53.496094 345.742188 54.332031 346.757812 55.109375 C 348.769531 56.671875 350.414062 58.015625 351.566406 58.953125 C 352.695312 59.917969 353.339844 60.46875 353.339844 60.46875 C 354.917969 61.101562 356.511719 61.734375 358.050781 62.4375 Z M 358.050781 62.4375 " fill-opacity="1" fill-rule="nonzero"/></g></g></g><g clip-path="url(#be5da10485)"><g clip-path="url(#621751dc1b)"><g clip-path="url(#7c51407dcd)"><path fill="#ffffff" d="M 302.777344 26.535156 C 302.777344 26.535156 301.4375 26.058594 298.925781 25.167969 C 297.671875 24.71875 296.121094 24.179688 294.273438 23.621094 C 293.351562 23.339844 292.359375 23.039062 291.300781 22.714844 C 290.242188 22.402344 289.105469 22.101562 287.914062 21.769531 C 283.132812 20.441406 277.253906 19.164062 270.488281 18.007812 C 268.792969 17.757812 267.042969 17.503906 265.242188 17.242188 C 263.441406 16.988281 261.585938 16.796875 259.6875 16.570312 C 257.785156 16.332031 255.835938 16.152344 253.839844 15.988281 C 251.84375 15.820312 249.804688 15.648438 247.722656 15.550781 C 246.683594 15.496094 245.632812 15.4375 244.570312 15.378906 C 244.039062 15.351562 243.507812 15.324219 242.972656 15.292969 C 242.4375 15.277344 241.898438 15.261719 241.359375 15.246094 C 240.277344 15.21875 239.191406 15.1875 238.089844 15.15625 C 236.992188 15.132812 235.886719 15.0625 234.773438 15.066406 C 232.546875 15.050781 230.28125 15.035156 227.984375 15.019531 C 225.695312 15.0625 223.371094 15.105469 221.015625 15.152344 C 218.671875 15.230469 216.292969 15.3125 213.886719 15.390625 C 212.683594 15.417969 211.484375 15.507812 210.273438 15.574219 C 209.0625 15.632812 207.84375 15.695312 206.621094 15.753906 C 204.488281 15.867188 202.335938 15.984375 200.160156 16.097656 C 199.640625 16.125 199.121094 16.152344 198.597656 16.179688 C 198.078125 16.191406 197.558594 16.203125 197.035156 16.214844 C 195.988281 16.242188 194.9375 16.265625 193.878906 16.289062 C 185.433594 16.433594 176.710938 16.113281 167.898438 15.195312 C 159.082031 14.332031 150.167969 12.902344 141.34375 10.902344 C 132.515625 8.917969 123.75 6.410156 115.289062 3.320312 C 114.226562 2.9375 113.167969 2.558594 112.109375 2.175781 C 111.0625 1.769531 110.015625 1.367188 108.972656 0.960938 C 107.921875 0.566406 106.886719 0.144531 105.855469 -0.289062 C 104.824219 -0.714844 103.792969 -1.144531 102.769531 -1.570312 C 98.691406 -3.347656 94.671875 -5.175781 90.789062 -7.144531 C 82.992188 -11.03125 75.589844 -15.21875 68.75 -19.574219 C 61.917969 -23.9375 55.609375 -28.40625 49.957031 -32.804688 C 44.308594 -37.207031 39.191406 -41.40625 34.785156 -45.300781 C 30.371094 -49.191406 26.628906 -52.738281 23.601562 -55.722656 C 20.570312 -58.707031 18.246094 -61.125 16.679688 -62.789062 C 15.109375 -64.453125 14.273438 -65.34375 14.273438 -65.34375 C 14.273438 -65.34375 12.699219 -66.140625 11.195312 -67.011719 C 9.675781 -67.871094 8.230469 -68.808594 8.230469 -68.808594 C 8.230469 -68.808594 8.425781 -68.574219 8.804688 -68.121094 C 9.183594 -67.667969 9.746094 -66.996094 10.492188 -66.128906 C 11.976562 -64.394531 14.179688 -61.871094 17.035156 -58.722656 C 19.898438 -55.582031 23.445312 -51.835938 27.652344 -47.710938 C 31.871094 -43.589844 36.761719 -39.097656 42.261719 -34.441406 C 53.21875 -25.105469 66.738281 -15.160156 82.21875 -6.652344 C 89.941406 -2.382812 98.097656 1.613281 106.589844 5.039062 C 107.652344 5.460938 108.71875 5.886719 109.785156 6.3125 C 110.851562 6.730469 111.933594 7.113281 113.011719 7.515625 C 115.15625 8.335938 117.34375 9.058594 119.515625 9.824219 C 123.890625 11.261719 128.292969 12.636719 132.753906 13.777344 C 150.539062 18.535156 168.773438 20.738281 185.851562 20.976562 C 187.988281 20.972656 190.105469 20.96875 192.203125 20.960938 C 194.300781 20.898438 196.378906 20.835938 198.4375 20.769531 C 202.851562 20.507812 207.171875 20.246094 211.378906 19.996094 C 220.496094 19.523438 229.203125 19.28125 237.289062 19.46875 C 245.375 19.566406 252.84375 20.046875 259.460938 20.746094 C 261.117188 20.929688 262.722656 21.078125 264.269531 21.28125 C 265.816406 21.488281 267.304688 21.6875 268.738281 21.878906 C 270.175781 22.050781 271.542969 22.308594 272.851562 22.535156 C 274.164062 22.761719 275.414062 22.980469 276.597656 23.1875 C 278.964844 23.636719 281.066406 24.121094 282.902344 24.503906 C 284.734375 24.914062 286.285156 25.308594 287.539062 25.632812 C 290.050781 26.261719 291.378906 26.664062 291.378906 26.664062 C 293.257812 26.578125 295.152344 26.496094 297.046875 26.496094 C 298.949219 26.507812 300.859375 26.523438 302.777344 26.535156 Z M 302.777344 26.535156 " fill-opacity="1" fill-rule="nonzero"/></g></g></g><g clip-path="url(#71fdee3b75)"><g clip-path="url(#0fb87822c7)"><g clip-path="url(#73dadbbbc0)"><path fill="#ffffff" d="M 330.71875 58.082031 C 330.71875 58.082031 329.988281 57.613281 328.710938 56.796875 C 327.429688 55.980469 325.570312 54.871094 323.335938 53.53125 C 318.835938 50.914062 312.691406 47.652344 306.34375 44.816406 C 299.992188 41.980469 293.480469 39.511719 288.511719 37.949219 C 286.042969 37.113281 283.953125 36.542969 282.5 36.101562 C 281.769531 35.890625 281.195312 35.722656 280.804688 35.613281 C 280.414062 35.503906 280.203125 35.445312 280.203125 35.445312 C 277.699219 35.523438 275.242188 35.542969 272.785156 35.691406 C 271.5625 35.761719 270.339844 35.835938 269.121094 35.910156 L 267.304688 36.023438 L 265.488281 36.183594 C 265.488281 36.183594 265.722656 36.222656 266.167969 36.304688 C 266.609375 36.378906 267.261719 36.492188 268.082031 36.671875 C 268.90625 36.84375 269.90625 37.050781 271.050781 37.289062 C 272.195312 37.53125 273.496094 37.785156 274.894531 38.136719 C 280.523438 39.40625 287.957031 41.480469 295.238281 44.054688 C 298.878906 45.335938 302.480469 46.742188 305.816406 48.148438 C 307.496094 48.828125 309.078125 49.574219 310.59375 50.253906 C 311.347656 50.601562 312.089844 50.921875 312.792969 51.261719 C 313.492188 51.605469 314.171875 51.9375 314.824219 52.253906 C 317.4375 53.503906 319.558594 54.664062 321.058594 55.445312 C 321.804688 55.839844 322.390625 56.148438 322.78125 56.378906 C 323.175781 56.601562 323.386719 56.71875 323.386719 56.71875 L 327.058594 57.347656 C 328.285156 57.566406 329.492188 57.832031 330.71875 58.082031 Z M 330.71875 58.082031 " fill-opacity="1" fill-rule="nonzero"/></g></g></g><g clip-path="url(#f83ddc9d10)"><g clip-path="url(#ba6cc587d4)"><g clip-path="url(#f15723b8e7)"><path fill="#ffffff" d="M 354.328125 93.535156 C 354.328125 93.535156 353.816406 93.097656 352.917969 92.332031 C 352.46875 91.949219 351.925781 91.484375 351.296875 90.953125 C 350.664062 90.429688 349.945312 89.839844 349.164062 89.199219 C 346.027344 86.644531 341.769531 83.324219 337.355469 80.210938 C 332.949219 77.089844 328.398438 74.175781 324.945312 72.050781 C 323.199219 71.015625 321.746094 70.152344 320.730469 69.550781 C 319.699219 68.96875 319.109375 68.640625 319.109375 68.640625 C 317.925781 68.535156 316.753906 68.425781 315.578125 68.347656 C 314.402344 68.289062 313.230469 68.230469 312.058594 68.171875 C 312.058594 68.171875 312.703125 68.488281 313.824219 69.042969 C 314.957031 69.578125 316.535156 70.421875 318.441406 71.414062 C 322.234375 73.421875 327.234375 76.226562 332.089844 79.28125 C 336.945312 82.328125 341.65625 85.613281 345.117188 88.179688 C 346.855469 89.449219 348.277344 90.546875 349.269531 91.320312 C 350.265625 92.085938 350.828125 92.53125 350.828125 92.53125 C 351.992188 92.851562 353.152344 93.171875 354.328125 93.535156 Z M 354.328125 93.535156 " fill-opacity="1" fill-rule="nonzero"/></g></g></g><g clip-path="url(#4010b8b530)"><g clip-path="url(#243adea598)"><g clip-path="url(#5a03fc54b1)"><path fill="#ffffff" d="M 331.855469 94.117188 C 331.855469 94.117188 331.253906 93.738281 330.207031 93.074219 C 329.167969 92.398438 327.640625 91.5 325.835938 90.386719 C 324.9375 89.824219 323.929688 89.269531 322.882812 88.652344 C 322.359375 88.347656 321.824219 88.03125 321.273438 87.710938 C 320.714844 87.398438 320.148438 87.082031 319.570312 86.757812 C 318.417969 86.113281 317.230469 85.429688 315.996094 84.796875 C 314.765625 84.152344 313.546875 83.445312 312.277344 82.824219 C 311.019531 82.191406 309.785156 81.511719 308.535156 80.90625 C 307.292969 80.292969 306.066406 79.6875 304.882812 79.097656 C 302.492188 77.976562 300.273438 76.894531 298.335938 76.039062 C 297.367188 75.609375 296.5 75.179688 295.707031 74.84375 C 294.917969 74.5 294.226562 74.203125 293.660156 73.957031 C 292.53125 73.453125 291.886719 73.164062 291.886719 73.164062 C 289.371094 73.449219 286.90625 73.769531 284.480469 74.132812 C 284.480469 74.132812 284.65625 74.195312 284.984375 74.316406 C 285.3125 74.433594 285.789062 74.621094 286.394531 74.851562 C 287.003906 75.085938 287.742188 75.367188 288.585938 75.691406 C 289.433594 76.015625 290.394531 76.371094 291.417969 76.808594 C 295.570312 78.433594 301.03125 80.753906 306.445312 83.214844 C 311.851562 85.6875 317.207031 88.320312 321.160156 90.445312 C 322.152344 90.972656 323.0625 91.457031 323.867188 91.886719 C 324.660156 92.335938 325.355469 92.726562 325.925781 93.050781 C 327.074219 93.6875 327.730469 94.054688 327.730469 94.054688 C 329.097656 94.058594 330.46875 94.070312 331.855469 94.117188 Z M 331.855469 94.117188 " fill-opacity="1" fill-rule="nonzero"/></g></g></g><g clip-path="url(#de10975cf9)"><g clip-path="url(#e1b61af5bc)"><g clip-path="url(#bec154ea86)"><path fill="#ffffff" d="M 308.730469 97.878906 C 308.730469 97.878906 308.070312 97.582031 306.9375 97.03125 C 306.371094 96.75 305.675781 96.425781 304.871094 96.074219 C 304.078125 95.703125 303.179688 95.28125 302.203125 94.824219 C 298.269531 93.039062 293.027344 90.703125 287.734375 88.429688 C 282.460938 86.097656 277.078125 83.933594 273.023438 82.238281 C 272.007812 81.824219 271.0625 81.472656 270.230469 81.144531 C 269.394531 80.820312 268.675781 80.507812 268.078125 80.261719 C 266.871094 79.800781 266.183594 79.539062 266.183594 79.539062 C 265.003906 79.824219 263.832031 80.109375 262.664062 80.394531 C 261.507812 80.695312 260.359375 80.996094 259.21875 81.292969 C 259.21875 81.292969 259.949219 81.554688 261.222656 82.007812 C 261.542969 82.121094 261.894531 82.246094 262.28125 82.382812 C 262.660156 82.527344 263.070312 82.691406 263.511719 82.847656 C 264.390625 83.164062 265.382812 83.523438 266.464844 83.917969 C 267.546875 84.304688 268.691406 84.804688 269.925781 85.230469 C 270.542969 85.457031 271.179688 85.675781 271.816406 85.921875 C 272.453125 86.175781 273.105469 86.433594 273.765625 86.695312 C 276.441406 87.664062 279.238281 88.804688 282.046875 89.878906 C 287.644531 92.089844 293.21875 94.28125 297.402344 95.976562 C 301.585938 97.699219 304.375 98.847656 304.375 98.847656 C 305.816406 98.492188 307.253906 98.199219 308.730469 97.878906 Z M 308.730469 97.878906 " fill-opacity="1" fill-rule="nonzero"/></g></g></g><g clip-path="url(#61d8c88e9f)"><g clip-path="url(#6f34a5df99)"><g clip-path="url(#ea40305f8b)"><path fill="#ffffff" d="M -2.625 -75.429688 C -2.625 -75.429688 -2.105469 -74.578125 -1.128906 -72.976562 C -0.136719 -71.382812 1.328125 -69.050781 3.265625 -66.132812 C 7.140625 -60.296875 12.957031 -52.128906 20.667969 -42.894531 C 28.371094 -33.664062 38.007812 -23.378906 49.367188 -13.453125 C 60.6875 -3.5 73.730469 6.09375 87.707031 14.1875 C 101.660156 22.324219 116.550781 28.875 130.996094 33.574219 C 138.214844 35.929688 145.320312 37.84375 152.125 39.335938 C 158.933594 40.820312 165.4375 41.917969 171.46875 42.742188 C 183.542969 44.292969 193.699219 44.691406 200.796875 44.765625 C 207.761719 44.808594 211.746094 44.832031 211.746094 44.832031 C 213.527344 44.175781 215.320312 43.578125 217.136719 42.9375 C 218.050781 42.621094 218.960938 42.304688 219.875 41.984375 C 220.796875 41.6875 221.714844 41.386719 222.640625 41.085938 C 222.640625 41.085938 221.628906 41.015625 219.730469 40.886719 C 217.835938 40.820312 215.050781 40.667969 211.503906 40.582031 C 207.953125 40.53125 203.640625 40.46875 198.699219 40.394531 C 196.226562 40.296875 193.597656 40.207031 190.832031 40.050781 C 188.070312 39.847656 185.160156 39.703125 182.136719 39.375 C 176.085938 38.835938 169.558594 37.953125 162.71875 36.726562 C 155.878906 35.503906 148.71875 33.914062 141.429688 31.875 C 126.835938 27.828125 111.738281 21.917969 97.449219 14.460938 C 83.132812 7.042969 69.679688 -1.953125 57.859375 -11.359375 C 46.046875 -20.789062 35.859375 -30.613281 27.644531 -39.496094 C 19.417969 -48.378906 13.132812 -56.300781 8.890625 -61.949219 C 6.769531 -64.777344 5.140625 -67.027344 4.054688 -68.578125 C 3.511719 -69.355469 3.09375 -69.949219 2.8125 -70.347656 C 2.535156 -70.75 2.390625 -70.960938 2.390625 -70.960938 C 2.390625 -70.960938 2.0625 -71.226562 1.570312 -71.628906 C 1.085938 -72.03125 0.445312 -72.582031 -0.183594 -73.136719 C -0.808594 -73.699219 -1.421875 -74.269531 -1.878906 -74.703125 C -2.324219 -75.140625 -2.625 -75.429688 -2.625 -75.429688 Z M -2.625 -75.429688 " fill-opacity="1" fill-rule="nonzero"/></g></g></g><g clip-path="url(#b32ef79da5)"><g clip-path="url(#c285d4653b)"><g clip-path="url(#12d31a2970)"><path fill="#ffffff" d="M 222.640625 41.085938 C 221.714844 41.386719 220.796875 41.6875 219.875 41.984375 C 218.960938 42.304688 218.050781 42.621094 217.136719 42.9375 C 215.320312 43.578125 213.527344 44.175781 211.746094 44.832031 L 212.300781 44.835938 C 214.652344 44.234375 217.019531 43.632812 219.390625 43.027344 C 221.796875 42.472656 224.210938 41.914062 226.636719 41.355469 Z M 222.640625 41.085938 " fill-opacity="1" fill-rule="nonzero"/></g></g></g><g clip-path="url(#948a4a682e)"><g clip-path="url(#656bab1c55)"><g clip-path="url(#4a5b11b586)"><path fill="#ffffff" d="M 299.785156 59.074219 C 299.785156 59.074219 298.980469 58.71875 297.570312 58.101562 C 296.144531 57.527344 294.117188 56.671875 291.660156 55.714844 C 286.746094 53.777344 280.082031 51.476562 273.296875 49.515625 C 266.515625 47.558594 259.632812 45.917969 254.414062 44.929688 C 253.117188 44.652344 251.921875 44.4375 250.855469 44.257812 C 249.792969 44.074219 248.867188 43.910156 248.105469 43.777344 C 247.339844 43.644531 246.742188 43.539062 246.332031 43.46875 C 245.921875 43.410156 245.703125 43.375 245.703125 43.375 C 243.546875 43.8125 241.589844 44.328125 239.695312 44.859375 C 237.796875 45.4375 235.96875 46.027344 234.078125 46.5625 C 234.078125 46.5625 234.945312 46.664062 236.464844 46.839844 C 237.226562 46.929688 238.148438 47.039062 239.207031 47.164062 C 240.261719 47.3125 241.449219 47.484375 242.746094 47.667969 C 245.34375 48.007812 248.351562 48.546875 251.574219 49.097656 C 254.785156 49.714844 258.207031 50.371094 261.59375 51.171875 C 268.382812 52.71875 275.078125 54.589844 280.046875 56.152344 C 282.523438 56.945312 284.578125 57.640625 286.019531 58.109375 C 287.449219 58.621094 288.265625 58.910156 288.265625 58.910156 C 289.21875 58.898438 290.171875 58.886719 291.125 58.875 L 293.996094 58.90625 L 296.890625 58.953125 C 297.855469 58.980469 298.816406 59.03125 299.785156 59.074219 Z M 299.785156 59.074219 " fill-opacity="1" fill-rule="nonzero"/></g></g></g><g clip-path="url(#ef0dbbce22)"><g clip-path="url(#ac7ac4de06)"><g clip-path="url(#360297d570)"><path fill="#ffffff" d="M 320.050781 103.808594 C 318.734375 104.027344 317.496094 104.261719 316.296875 104.554688 C 316.296875 104.554688 316.828125 104.808594 317.761719 105.257812 C 318.226562 105.484375 318.808594 105.738281 319.464844 106.046875 C 320.113281 106.363281 320.851562 106.722656 321.652344 107.113281 C 322.054688 107.308594 322.476562 107.511719 322.910156 107.722656 C 323.339844 107.941406 323.78125 108.171875 324.242188 108.398438 C 325.160156 108.863281 326.15625 109.320312 327.148438 109.855469 C 328.144531 110.382812 329.183594 110.917969 330.246094 111.460938 C 331.300781 112.023438 332.375 112.59375 333.449219 113.167969 C 334.5 113.769531 335.59375 114.335938 336.65625 114.914062 C 337.707031 115.507812 338.734375 116.109375 339.753906 116.664062 C 340.761719 117.242188 341.738281 117.804688 342.664062 118.332031 C 343.585938 118.878906 344.460938 119.390625 345.269531 119.867188 C 348.5 121.785156 350.664062 123.125 350.664062 123.125 C 351.265625 123.121094 351.84375 123.09375 352.414062 123.058594 C 352.414062 123.058594 350.390625 121.734375 347.355469 119.746094 C 346.59375 119.265625 345.769531 118.746094 344.894531 118.199219 C 344.042969 117.628906 343.113281 117.074219 342.167969 116.480469 C 341.230469 115.882812 340.234375 115.300781 339.246094 114.691406 C 338.753906 114.386719 338.253906 114.078125 337.753906 113.769531 C 337.25 113.472656 336.742188 113.175781 336.234375 112.875 C 334.214844 111.667969 332.203125 110.488281 330.296875 109.421875 C 329.351562 108.882812 328.441406 108.359375 327.574219 107.867188 C 326.703125 107.390625 325.875 106.941406 325.113281 106.527344 C 323.613281 105.671875 322.324219 105.027344 321.445312 104.539062 C 320.566406 104.058594 320.050781 103.808594 320.050781 103.808594 Z M 320.050781 103.808594 " fill-opacity="1" fill-rule="nonzero"/></g></g></g></g></g></g></g></svg>